<?xml version="1.0" standalone="no"?>
<!DOCTYPE svg PUBLIC "-//W3C//DTD SVG 20010904//EN"
 "http://www.w3.org/TR/2001/REC-SVG-20010904/DTD/svg10.dtd">
<svg version="1.0" xmlns="http://www.w3.org/2000/svg"
 width="512.000000pt" height="512.000000pt" viewBox="0 0 512.000000 512.000000"
 preserveAspectRatio="xMidYMid meet">

<g transform="translate(0.000000,512.000000) scale(0.100000,-0.100000)"
fill="#000000" stroke="none">
<path d="M1447 4162 c-15 -16 -17 -49 -17 -260 l0 -241 -208 -3 -209 -3 -48
-30 c-32 -20 -56 -45 -72 -74 l-23 -44 0 -994 c0 -957 1 -995 19 -1031 22 -43
53 -73 98 -96 27 -13 72 -16 286 -16 l253 0 12 -58 c36 -174 181 -318 360
-358 170 -38 364 30 470 163 42 53 90 156 98 210 l6 43 718 0 718 0 6 -44 c4
-24 22 -76 42 -116 65 -136 196 -234 347 -260 160 -28 345 41 445 167 42 53
90 156 98 210 l6 43 118 0 c94 0 122 3 134 16 14 13 16 59 15 352 l-1 337
-286 425 -287 425 -402 3 -403 2 0 280 c0 305 -3 326 -58 383 -55 59 -69 62
-299 65 l-213 4 1 246 c0 222 -2 248 -18 259 -13 10 -196 13 -853 13 -798 0
-838 -1 -853 -18z m653 -137 l0 -55 -285 0 -285 0 0 55 0 55 285 0 285 0 0
-55z m300 -110 l0 -165 -100 0 -100 0 0 165 0 165 100 0 100 0 0 -165z m670
110 l0 -55 -285 0 -285 0 0 55 0 55 285 0 285 0 0 -55z m-970 -245 c0 -131 -2
-130 199 -130 202 0 200 -2 203 125 l3 90 283 3 282 2 0 -625 0 -625 -770 0
-770 0 0 625 0 625 285 0 285 0 0 -90z m-670 -723 c0 -378 3 -506 12 -515 19
-19 1701 -17 1717 1 7 10 12 165 13 513 l3 499 203 0 204 0 29 -33 29 -32 0
-981 0 -981 -29 -29 -29 -29 -554 0 -554 0 -17 70 c-42 161 -187 302 -348 339
-109 25 -249 5 -344 -49 -109 -63 -214 -206 -231 -315 l-6 -45 -250 0 -250 0
-29 29 -29 29 0 982 c0 683 3 987 11 1001 21 41 63 48 262 49 l187 0 0 -503z
m2602 -479 l3 -253 32 -67 c44 -94 109 -160 202 -206 l75 -37 338 -3 338 -3 0
-269 0 -270 -84 0 -83 0 -7 43 c-26 161 -188 327 -357 366 -65 15 -167 13
-234 -5 -158 -41 -289 -175 -332 -338 l-18 -66 -93 0 c-86 0 -93 1 -86 18 5 9
10 315 12 680 l2 662 144 0 144 0 4 -252z m698 -109 l241 -360 -308 3 -308 3
-54 30 c-68 37 -125 102 -151 171 -18 49 -20 78 -20 284 l0 230 180 0 180 0
240 -361z m-2578 -711 c79 -37 142 -98 181 -177 29 -60 32 -74 32 -161 0 -84
-3 -102 -29 -157 -33 -73 -113 -154 -181 -184 -186 -82 -399 -8 -488 170 -41
82 -53 159 -37 238 28 134 120 241 243 285 78 27 204 21 279 -14z m2386 -2
c75 -38 133 -95 173 -168 33 -60 34 -68 34 -168 0 -94 -3 -111 -27 -160 -114
-232 -417 -285 -601 -106 -71 69 -101 140 -105 251 -5 112 18 181 84 254 92
103 164 133 299 128 74 -3 99 -8 143 -31z"/>
<path d="M1730 3441 c-6 -12 -10 -128 -10 -305 0 -273 1 -287 20 -306 20 -20
33 -20 558 -20 470 0 540 2 560 16 22 15 22 17 22 313 0 218 -3 300 -12 309
-9 9 -149 12 -570 12 -541 0 -558 -1 -568 -19z m1050 -301 l0 -230 -477 2
-478 3 -3 215 c-1 118 0 220 2 227 4 10 105 13 481 13 l475 0 0 -230z"/>
<path d="M1987 3262 c-21 -23 -22 -46 -1 -66 13 -14 56 -16 319 -16 303 0 304
0 319 22 20 29 20 34 -4 58 -19 19 -33 20 -318 20 -277 0 -300 -1 -315 -18z"/>
<path d="M1987 3082 c-21 -23 -22 -46 -1 -66 13 -14 56 -16 319 -16 303 0 304
0 319 22 20 29 20 34 -4 58 -19 19 -33 20 -318 20 -277 0 -300 -1 -315 -18z"/>
<path d="M1196 2244 c-19 -18 -21 -55 -4 -72 9 -9 269 -12 1109 -12 984 0
1099 2 1113 16 21 21 20 47 -2 67 -17 16 -108 17 -1110 17 -978 0 -1092 -2
-1106 -16z"/>
<path d="M1955 1621 c-49 -12 -93 -39 -118 -73 -68 -91 -61 -199 17 -274 119
-114 304 -61 347 99 14 52 4 106 -31 160 -41 66 -140 106 -215 88z m116 -130
c65 -65 20 -181 -71 -181 -62 0 -118 70 -105 131 17 76 120 105 176 50z"/>
<path d="M4339 1620 c-79 -14 -146 -84 -164 -168 -19 -92 52 -205 147 -231
155 -44 298 100 254 253 -30 103 -133 166 -237 146z m109 -125 c38 -32 48 -72
28 -118 -15 -37 -58 -67 -96 -67 -34 0 -79 28 -96 61 -51 99 78 196 164 124z"/>
<path d="M212 3478 c-19 -19 -15 -66 7 -78 12 -6 112 -10 255 -10 223 0 237 1
256 20 23 23 24 33 10 61 -10 18 -24 19 -263 19 -184 0 -256 -3 -265 -12z"/>
<path d="M19 3211 c-20 -16 -22 -23 -14 -47 l10 -29 254 -3 c179 -2 258 1 267
9 20 16 17 53 -4 72 -16 15 -49 17 -254 17 -217 0 -238 -2 -259 -19z"/>
<path d="M212 2948 c-19 -19 -15 -66 7 -78 12 -6 114 -10 260 -10 l241 0 16
25 c15 23 15 27 0 50 l-16 25 -248 0 c-180 0 -251 -3 -260 -12z"/>
<path d="M22 2684 c-16 -11 -22 -24 -20 -42 5 -47 32 -52 278 -52 245 0 270 5
270 55 0 50 -24 55 -275 55 -195 0 -234 -2 -253 -16z"/>
<path d="M218 2419 c-25 -14 -24 -65 1 -79 12 -6 114 -10 260 -10 l241 0 16
25 c15 23 15 27 0 50 l-16 25 -243 0 c-146 0 -249 -5 -259 -11z"/>
<path d="M12 2148 c-19 -19 -14 -55 10 -72 19 -13 61 -16 253 -16 192 0 234 3
253 16 24 17 29 53 10 72 -17 17 -509 17 -526 0z"/>
<path d="M223 1890 c-26 -10 -32 -57 -11 -78 9 -9 80 -12 260 -12 l248 0 15
24 c19 28 10 54 -22 67 -31 12 -461 11 -490 -1z"/>
<path d="M16 1614 c-20 -20 -20 -48 0 -68 13 -14 51 -16 259 -16 208 0 246 2
259 16 9 8 16 24 16 34 0 10 -7 26 -16 34 -13 14 -51 16 -259 16 -208 0 -246
-2 -259 -16z"/>
</g>
</svg>
