<?xml version="1.0" standalone="no"?>
<!DOCTYPE svg PUBLIC "-//W3C//DTD SVG 20010904//EN"
 "http://www.w3.org/TR/2001/REC-SVG-20010904/DTD/svg10.dtd">
<svg version="1.0" xmlns="http://www.w3.org/2000/svg"
 width="512.000000pt" height="512.000000pt" viewBox="0 0 512.000000 512.000000"
 preserveAspectRatio="xMidYMid meet">

<g transform="translate(0.000000,512.000000) scale(0.100000,-0.100000)"
fill="#000000" stroke="none">
<path d="M1437 4650 c-97 -25 -192 -110 -222 -200 -42 -126 -10 -265 84 -362
l57 -58 -499 0 c-346 0 -511 -4 -538 -11 -52 -16 -108 -64 -130 -113 -16 -36
-19 -70 -19 -294 0 -270 4 -298 53 -350 27 -29 80 -57 126 -67 l34 -7 -5 -957
c-3 -561 -2 -980 4 -1015 18 -117 98 -224 206 -274 46 -21 76 -27 153 -30 l96
-4 17 -62 c70 -250 318 -415 569 -376 201 30 368 179 423 378 l17 62 800 -2
799 -3 22 -70 c27 -85 37 -105 88 -172 l39 -53 -259 0 c-247 0 -261 -1 -286
-21 -31 -25 -34 -66 -7 -100 l19 -24 489 0 c476 0 490 1 558 22 173 54 312
200 350 368 l11 50 160 5 c172 5 193 11 246 67 59 62 58 47 58 708 0 496 -3
612 -14 639 -15 35 -599 818 -632 848 -52 46 -71 48 -490 48 l-397 0 41 44
c22 24 45 61 51 82 6 23 11 138 11 275 l0 235 -27 55 c-21 40 -40 61 -77 84
l-49 30 -504 5 -504 5 50 49 c72 71 105 149 105 251 0 135 -58 231 -171 287
-57 28 -77 32 -139 32 -61 -1 -84 -6 -138 -33 -74 -36 -138 -101 -182 -185
l-29 -56 -27 53 c-79 157 -250 252 -391 217z m151 -161 c92 -45 167 -200 188
-386 l7 -63 -30 0 c-47 0 -176 36 -234 66 -114 57 -179 141 -179 228 1 74 47
145 110 169 33 12 96 6 138 -14z m709 -5 c55 -41 68 -70 68 -149 0 -65 -3 -78
-30 -116 -60 -85 -214 -161 -354 -176 l-54 -6 7 59 c24 199 102 356 201 401
41 19 129 11 162 -13z m-769 -871 l2 -273 -589 0 -590 0 -20 26 c-20 25 -21
39 -21 248 0 241 2 249 55 265 17 5 284 9 595 8 l565 -2 3 -272z m482 -793 l0
-1070 -170 0 -170 0 0 1063 c0 585 3 1067 7 1070 3 4 80 7 170 7 l163 0 0
-1070z m1339 1046 c20 -18 21 -28 21 -254 0 -205 -2 -238 -17 -254 -15 -17
-47 -18 -605 -18 l-588 0 0 275 0 276 584 -3 c558 -3 585 -4 605 -22z m-1819
-1396 l0 -720 -505 0 -505 0 0 720 0 720 505 0 505 0 0 -720z m1636 659 c-3
-34 -6 -358 -6 -720 l0 -659 -500 0 -500 0 0 720 0 720 506 0 507 0 -7 -61z
m1026 -62 c18 -8 130 -149 320 -402 l293 -390 3 -575 c2 -398 -1 -583 -8 -601
-17 -40 -49 -49 -184 -49 l-123 0 -26 81 c-74 223 -257 359 -482 360 -101 0
-161 -14 -248 -59 -126 -65 -228 -194 -259 -329 l-13 -53 -77 0 -78 0 0 1015
0 1015 428 0 c310 -1 434 -4 454 -13z m-1032 -1742 l0 -275 -648 0 -649 0 -17
61 c-23 85 -56 146 -113 209 -101 113 -230 170 -382 170 -150 0 -257 -44 -362
-149 -72 -72 -109 -135 -135 -230 l-17 -61 -54 0 c-90 0 -141 18 -194 69 -30
30 -51 60 -58 86 -6 22 -11 120 -11 218 l0 177 1320 0 1320 0 0 -275z m-1702
7 c108 -34 185 -104 235 -212 16 -35 21 -66 21 -140 1 -83 -3 -102 -26 -152
-34 -74 -112 -152 -186 -186 -49 -23 -70 -27 -152 -27 -82 0 -103 4 -152 27
-74 34 -152 112 -186 186 -24 50 -27 69 -26 152 0 74 5 105 21 140 49 107 127
177 232 211 73 23 145 23 219 1z m2668 -16 c70 -32 146 -103 179 -166 95 -187
18 -413 -173 -507 -50 -25 -68 -28 -152 -28 -82 0 -103 4 -152 27 -76 35 -148
104 -184 175 -27 53 -29 67 -29 163 0 96 3 110 28 158 53 101 136 170 236 199
71 20 176 11 247 -21z"/>
<path d="M3520 2908 c-69 -47 -71 -59 -68 -380 3 -272 4 -288 24 -314 11 -15
33 -37 48 -48 27 -20 41 -21 464 -24 240 -2 452 0 470 3 42 8 98 57 112 100 6
19 8 50 5 69 -9 48 -402 574 -448 599 -28 15 -63 17 -303 17 -265 0 -272 -1
-304 -22z m724 -368 l186 -250 -415 0 -415 0 0 250 0 250 229 0 229 0 186
-250z"/>
<path d="M3553 1990 c-47 -19 -56 -78 -18 -115 23 -24 30 -25 148 -25 111 0
127 2 151 21 33 26 36 77 5 105 -18 16 -39 19 -143 21 -66 2 -131 -2 -143 -7z"/>
<path d="M1286 1190 c-95 -30 -162 -127 -154 -225 9 -114 107 -205 218 -205
147 0 258 158 206 293 -18 48 -64 100 -109 124 -36 18 -122 26 -161 13z m116
-157 c25 -23 24 -84 -2 -108 -27 -25 -76 -23 -102 3 -26 25 -27 76 -2 103 21
24 81 25 106 2z"/>
<path d="M3879 1173 c-35 -19 -64 -43 -84 -71 -27 -39 -30 -51 -30 -121 0 -68
3 -83 28 -119 82 -124 249 -137 346 -25 86 97 73 239 -31 315 -73 55 -148 62
-229 21z m151 -143 c11 -11 20 -33 20 -49 0 -71 -80 -101 -127 -47 -28 33 -29
56 -2 90 26 33 79 36 109 6z"/>
<path d="M1967 599 c-48 -28 -40 -107 12 -129 19 -7 119 -10 320 -8 l293 3 19
24 c26 32 24 67 -6 96 l-24 25 -298 0 c-190 0 -305 -4 -316 -11z"/>
</g>
</svg>
