<?xml version="1.0" standalone="no"?>
<!DOCTYPE svg PUBLIC "-//W3C//DTD SVG 20010904//EN"
 "http://www.w3.org/TR/2001/REC-SVG-20010904/DTD/svg10.dtd">
<svg version="1.0" xmlns="http://www.w3.org/2000/svg"
 width="512.000000pt" height="512.000000pt" viewBox="0 0 512.000000 512.000000"
 preserveAspectRatio="xMidYMid meet">

<g transform="translate(0.000000,512.000000) scale(0.100000,-0.100000)"
fill="#000000" stroke="none">
<path d="M38 4211 l-33 -29 0 -1352 0 -1352 33 -29 32 -29 195 0 194 0 11 -42
c64 -254 269 -444 523 -486 88 -14 106 -14 194 0 239 40 442 214 511 440 l27
88 768 0 c605 0 768 -3 771 -12 64 -217 135 -321 282 -418 108 -71 215 -103
344 -104 116 0 177 14 284 65 163 78 299 245 337 415 l12 54 263 0 264 0 32
29 33 29 0 479 0 478 -25 65 c-41 105 -93 172 -239 308 -136 127 -137 128
-341 431 -222 328 -272 386 -382 440 -106 52 -172 61 -470 61 l-268 0 0 28 c0
16 -7 53 -16 83 -54 183 -200 327 -380 373 -55 14 -220 16 -1493 16 l-1431 0
-32 -29z m2957 -210 c63 -32 124 -93 156 -156 l24 -50 5 -495 c4 -401 8 -499
19 -516 34 -51 9 -49 741 -52 l685 -3 112 -107 c87 -83 118 -120 140 -167 l28
-60 3 -382 3 -383 -193 0 -194 0 -13 51 c-47 183 -197 355 -371 426 -130 52
-239 63 -368 38 -191 -38 -357 -166 -444 -341 -25 -51 -49 -110 -53 -133 l-7
-41 -773 0 -774 0 -16 56 c-65 226 -219 379 -450 450 -81 25 -247 25 -330 0
-211 -63 -391 -241 -446 -441 l-16 -60 -127 -3 -126 -3 0 1201 0 1200 1368 -2
1367 -3 50 -24z m1012 -499 c81 -33 127 -84 283 -317 82 -123 150 -227 150
-230 0 -3 -236 -5 -525 -5 l-525 0 0 285 0 285 288 -1 c247 0 293 -2 329 -17z
m-2808 -1573 c112 -25 222 -116 273 -226 133 -283 -69 -603 -382 -603 -326 0
-525 346 -364 635 30 52 117 136 170 162 95 48 189 58 303 32z m2876 -28 c264
-123 324 -470 117 -678 -90 -91 -190 -128 -325 -121 -297 15 -481 327 -354
600 98 210 349 299 562 199z"/>
<path d="M2475 3621 c-16 -10 -221 -211 -455 -445 l-425 -426 -240 240 c-132
131 -252 244 -267 249 -67 25 -138 -27 -138 -100 0 -39 8 -49 275 -322 152
-155 290 -292 307 -304 19 -13 47 -23 68 -23 32 0 64 30 528 493 486 486 494
495 499 539 5 39 2 49 -23 77 -37 41 -87 50 -129 22z"/>
</g>
</svg>
